<svg xmlns="http://www.w3.org/2000/svg" viewBox="0 0 555.86 145.69"><defs><style>.cls-1{fill:#cf2525;}.cls-2{fill:#880a0e;}.cls-3{fill:#fff;}.cls-4{fill:#f9ca29;}</style></defs><g id="Layer_2" data-name="Layer 2"><g id="Layer_1-2" data-name="Layer 1"><rect class="cls-1" x="135.13" width="144.44" height="44.7"/><rect class="cls-2" width="133.13" height="44.7"/><rect class="cls-2" x="281.56" width="274.29" height="44.7"/><path class="cls-3" d="M149.84,34.24V11.33h5.8a15.42,15.42,0,0,1,2.27.15,8.1,8.1,0,0,1,1.94.54,4.66,4.66,0,0,1,1.54,1.05,4.68,4.68,0,0,1,1,1.71,7.69,7.69,0,0,1,.33,2.36v.11q0,4.14-3.35,4.68,4,.62,4,5.58v.15a6.56,6.56,0,0,1-1.68,4.89,6.85,6.85,0,0,1-5,1.69Zm4.65-13.67h1.12a3,3,0,0,0,2.36-.76,3.81,3.81,0,0,0,.64-2.47,2.6,2.6,0,0,0-.82-2.21,4.27,4.27,0,0,0-2.59-.63h-.71Zm0,10.39h1.27a3,3,0,0,0,2.44-.83,4.16,4.16,0,0,0,.69-2.68,4.4,4.4,0,0,0-.74-2.86,3.21,3.21,0,0,0-2.52-.85h-1.14Z"/><path class="cls-3" d="M172.51,34.54a9.11,9.11,0,0,1-3.22-.5,4.36,4.36,0,0,1-2-1.54,6.39,6.39,0,0,1-1-2.39,14.76,14.76,0,0,1-.31-3.29V11.33h4.58V27.41c0,.43,0,.81,0,1.11a7.69,7.69,0,0,0,.15,1,2.39,2.39,0,0,0,.34.85,1.58,1.58,0,0,0,.6.54,1.87,1.87,0,0,0,.92.22,2,2,0,0,0,.94-.22,1.58,1.58,0,0,0,.6-.54,2.84,2.84,0,0,0,.33-.85,6.15,6.15,0,0,0,.15-1c0-.3,0-.68,0-1.12V11.33h4.57V26.82a15.44,15.44,0,0,1-.3,3.29,6.56,6.56,0,0,1-1,2.39,4.38,4.38,0,0,1-2,1.54A9.19,9.19,0,0,1,172.51,34.54Z"/><path class="cls-3" d="M185.41,34.24V25.16l-4.5-13.83h4.37l2.47,8.09,2.31-8.09h4.27l-4.46,13.83v9.08Z"/><path class="cls-3" d="M221.41,34.54a6.1,6.1,0,0,1-4.77-1.75,8.37,8.37,0,0,1-1.71-5.39l4-.72a7.78,7.78,0,0,0,.57,3.23A1.77,1.77,0,0,0,221.22,31a1.33,1.33,0,0,0,1.18-.52,2.3,2.3,0,0,0,.37-1.36,4.14,4.14,0,0,0-.59-2.27,10,10,0,0,0-1.89-2.05l-2.46-2.13a12.61,12.61,0,0,1-1.51-1.53,6.41,6.41,0,0,1-1-1.81,7.22,7.22,0,0,1-.39-2.44,5.6,5.6,0,0,1,1.64-4.3A6.44,6.44,0,0,1,221.12,11a7.45,7.45,0,0,1,1.77.19,5.3,5.3,0,0,1,1.38.52,4.26,4.26,0,0,1,1,.83,5.07,5.07,0,0,1,.72,1,6.35,6.35,0,0,1,.47,1.21,9.44,9.44,0,0,1,.28,1.27c.05.4.09.83.12,1.3l-4,.64c0-.47,0-.86-.07-1.18a7.17,7.17,0,0,0-.15-1,2.35,2.35,0,0,0-.32-.79,1.37,1.37,0,0,0-.52-.46,1.42,1.42,0,0,0-.79-.15,1.49,1.49,0,0,0-1.19.59,2.16,2.16,0,0,0-.42,1.34,4,4,0,0,0,.14,1.13,3.32,3.32,0,0,0,.48,1,6.52,6.52,0,0,0,.6.73c.18.19.44.43.78.75l2.42,2.1a16.91,16.91,0,0,1,1.34,1.34,9.61,9.61,0,0,1,1.09,1.48,6.9,6.9,0,0,1,.78,1.82,8,8,0,0,1,.27,2.12,5.53,5.53,0,0,1-1.62,4.1A5.83,5.83,0,0,1,221.41,34.54Z"/><path class="cls-3" d="M229.75,34.24V11.33h10v3.23H234.4v6.07h4.13v3.26H234.4v7.17h5.38v3.18Z"/><path class="cls-3" d="M242.13,34.24V11.33h4.65V31.06h5.35v3.18Z"/><path class="cls-3" d="M254.36,34.24V11.33H259V31.06h5.35v3.18Z"/><rect y="80.15" width="133.13" height="31.45"/><rect y="46.7" width="133.13" height="31.45"/><rect class="cls-4" x="135.13" y="46.7" width="144.44" height="31.45"/><rect class="cls-1" x="281.56" y="46.7" width="274.29" height="98.99"/><rect class="cls-4" x="135.13" y="80.15" width="144.44" height="31.45"/><rect class="cls-4" x="135.13" y="113.61" width="144.44" height="31.45"/><rect y="114.24" width="133.13" height="31.45"/><path class="cls-3" d="M11.49,68.85,11.7,55.9h2.78l1.63,8.26,1.72-8.26h2.69l.21,12.95H18.8l-.18-8.74L17,68.85H15.34l-1.73-8.79-.16,8.79Z"/><path class="cls-3" d="M22,68.85,24.52,55.9h2.89l2.52,12.95H27.48L27,66H25l-.47,2.87Zm3.22-4.5h1.54L26,59.19Z"/><path class="cls-3" d="M31.21,68.85V55.9h3.27a8.39,8.39,0,0,1,1.78.16,3.56,3.56,0,0,1,1.31.54,2.31,2.31,0,0,1,.86,1.06,4.34,4.34,0,0,1,.29,1.67,4.86,4.86,0,0,1-.36,2,2.37,2.37,0,0,1-1.22,1.17l1.79,6.32H36.24L34.76,63h-.92v5.84Zm2.63-7.44h.66A1.71,1.71,0,0,0,35.85,61a2.09,2.09,0,0,0,.4-1.43,2.26,2.26,0,0,0-.35-1.4,1.49,1.49,0,0,0-1.25-.44h-.81Z"/><path class="cls-3" d="M40.47,68.85V55.9H43.1v5.43l2.35-5.43H48l-2.43,5.82,2.61,7.13H45.52l-2.05-5.93-.37.63v5.3Z"/><path class="cls-3" d="M49.27,68.85V55.9h5.64v1.82h-3v3.43h2.33V63H51.91v4h3v1.8Z"/><path class="cls-3" d="M57.5,68.85v-11H55.43V55.9h6.74v1.94h-2v11Z"/><path class="cls-3" d="M63.29,68.85V55.9h2.62V68.85Z"/><path class="cls-3" d="M67.86,68.85V55.9H69.7l2.89,6.72V55.9h2.18V68.85H73l-2.91-7.16v7.16Z"/><path class="cls-3" d="M80,69a4,4,0,0,1-1.65-.31,2.61,2.61,0,0,1-1.1-.92,4.32,4.32,0,0,1-.59-1.4,8.5,8.5,0,0,1-.18-1.86V60.27a10.16,10.16,0,0,1,.11-1.55A5,5,0,0,1,77,57.46a2.93,2.93,0,0,1,.7-.94,3.1,3.1,0,0,1,1.08-.58,5,5,0,0,1,1.52-.21A5.31,5.31,0,0,1,82,56a2.56,2.56,0,0,1,1.15.76,3.22,3.22,0,0,1,.62,1.19A5.77,5.77,0,0,1,84,59.53v.73H81.45v-.87c0-.24,0-.44,0-.59a2.72,2.72,0,0,0-.08-.47,1,1,0,0,0-.18-.39.88.88,0,0,0-.32-.23,1.29,1.29,0,0,0-.51-.09,1.08,1.08,0,0,0-.54.12.85.85,0,0,0-.34.27,1.17,1.17,0,0,0-.18.45,2.66,2.66,0,0,0-.08.51c0,.16,0,.35,0,.6v5.62a3,3,0,0,0,.26,1.43,1,1,0,0,0,1,.5,1,1,0,0,0,1-.53,3.22,3.22,0,0,0,.28-1.51V63.81H80.4V62.19h3.65v6.66H82.32l-.17-1.19A2.13,2.13,0,0,1,80,69Z"/><path class="cls-3" d="M11.52,102.35V89.4h2.64v11.15h3v1.8Z"/><path class="cls-3" d="M18.48,102.35V89.4H21.1v12.95Z"/><path class="cls-3" d="M29.53,104.92a5,5,0,0,1-1.34-1A8.05,8.05,0,0,1,27,102.51h-.27a5.08,5.08,0,0,1-1.8-.28,2.67,2.67,0,0,1-1.18-.86,3.43,3.43,0,0,1-.64-1.33,7.33,7.33,0,0,1-.2-1.8V93.47a7.21,7.21,0,0,1,.2-1.8,3.39,3.39,0,0,1,.64-1.32,2.71,2.71,0,0,1,1.18-.84,5.32,5.32,0,0,1,1.8-.28,3.66,3.66,0,0,1,2.95,1.07,4.89,4.89,0,0,1,.89,3.17v4.78c0,2-.58,3.25-1.75,3.84a5.91,5.91,0,0,0,1.28,1.17Zm-3.36-4.39a1.49,1.49,0,0,0,1,0,1,1,0,0,0,.34-.25,1.18,1.18,0,0,0,.19-.39,2,2,0,0,0,.09-.47c0-.14,0-.32,0-.53V92.83c0-.21,0-.39,0-.54a2,2,0,0,0-.09-.46,1.07,1.07,0,0,0-.19-.37.87.87,0,0,0-.34-.24,1.35,1.35,0,0,0-1,0,.83.83,0,0,0-.33.24,1,1,0,0,0-.18.38,4.14,4.14,0,0,0-.09.46c0,.14,0,.32,0,.53v6.06c0,.21,0,.39,0,.53a4.3,4.3,0,0,0,.09.47,1.18,1.18,0,0,0,.18.39A1,1,0,0,0,26.17,100.53Z"/><path class="cls-3" d="M35.9,102.52a5.14,5.14,0,0,1-1.83-.28,2.47,2.47,0,0,1-1.15-.87,3.59,3.59,0,0,1-.59-1.35,8.46,8.46,0,0,1-.17-1.87V89.4h2.58v9.09c0,.25,0,.45,0,.63a3.09,3.09,0,0,0,.09.56,1.34,1.34,0,0,0,.18.48,1.1,1.1,0,0,0,.34.3,1.23,1.23,0,0,0,1.06,0,1,1,0,0,0,.34-.3,1.56,1.56,0,0,0,.18-.48,3,3,0,0,0,.09-.56c0-.17,0-.38,0-.63V89.4h2.59v8.75a9.11,9.11,0,0,1-.17,1.87,3.75,3.75,0,0,1-.59,1.35,2.42,2.42,0,0,1-1.15.87A5.1,5.1,0,0,1,35.9,102.52Z"/><path class="cls-3" d="M41.52,102.35V89.4h2.61v12.95Z"/><path class="cls-3" d="M46.09,102.35V89.4h3.14a7.93,7.93,0,0,1,2.05.22,2.7,2.7,0,0,1,1.3.75,2.79,2.79,0,0,1,.69,1.25,6.88,6.88,0,0,1,.21,1.85v4.67a7.25,7.25,0,0,1-.21,1.89,3.06,3.06,0,0,1-.68,1.3,2.81,2.81,0,0,1-1.29.78,7.15,7.15,0,0,1-2,.24Zm2.63-1.84h.55a3.43,3.43,0,0,0,.48,0,1,1,0,0,0,.37-.11,1.13,1.13,0,0,0,.27-.16.58.58,0,0,0,.18-.24,2.24,2.24,0,0,0,.12-.29,1.59,1.59,0,0,0,.06-.38c0-.16,0-.3,0-.43v-5.7c0-.31,0-.55,0-.73a2.27,2.27,0,0,0-.11-.53.72.72,0,0,0-.26-.38,1.39,1.39,0,0,0-.44-.2,2.88,2.88,0,0,0-.71-.07h-.52Z"/><path class="cls-3" d="M55.25,102.35V89.4h2.62v12.95Z"/><path class="cls-3" d="M61.05,102.35v-11H59V89.4h6.74v1.94h-2v11Z"/><path class="cls-3" d="M68.51,102.35V97.22L66,89.4h2.47L69.84,94l1.3-4.57h2.41L71,97.22v5.13Z"/><path class="cls-3" d="M11.52,135.85V122.9h3.15a7.8,7.8,0,0,1,2,.22,2.73,2.73,0,0,1,1.31.75,3,3,0,0,1,.69,1.25,6.92,6.92,0,0,1,.2,1.85v4.67a7.29,7.29,0,0,1-.2,1.89,3.08,3.08,0,0,1-.69,1.3,2.71,2.71,0,0,1-1.29.78,7.06,7.06,0,0,1-2,.24ZM14.16,134h.54a3.48,3.48,0,0,0,.49,0,1,1,0,0,0,.37-.11,1.38,1.38,0,0,0,.27-.16.58.58,0,0,0,.18-.24,2.24,2.24,0,0,0,.12-.29,1.59,1.59,0,0,0,.06-.38c0-.16,0-.3,0-.43s0-.29,0-.5v-5.2c0-.31,0-.55,0-.73a2.93,2.93,0,0,0-.11-.53.78.78,0,0,0-.26-.38,1.35,1.35,0,0,0-.45-.2,2.75,2.75,0,0,0-.7-.07h-.52Z"/><path class="cls-3" d="M20.64,135.85V122.9h5.64v1.82h-3v3.43h2.34V130H23.27v4.05h3v1.8Z"/><path class="cls-3" d="M29.52,135.85,27,122.9h2.29l1.53,8.86,1.44-8.86h2.39L32.2,135.85Z"/><path class="cls-3" d="M36,135.85V122.9h5.64v1.82h-3v3.43H41V130H38.62v4.05h3v1.8Z"/><path class="cls-3" d="M43,135.85V122.9h2.63v11.15h3v1.8Z"/><path class="cls-3" d="M53.38,136a5,5,0,0,1-1.79-.28,2.7,2.7,0,0,1-1.19-.86,3.58,3.58,0,0,1-.64-1.33,7.33,7.33,0,0,1-.2-1.8V127a7.21,7.21,0,0,1,.2-1.8,3.53,3.53,0,0,1,.64-1.32,2.74,2.74,0,0,1,1.19-.84,5.21,5.21,0,0,1,1.79-.28,3.65,3.65,0,0,1,2.95,1.07,4.83,4.83,0,0,1,.9,3.17v4.78a4.88,4.88,0,0,1-.9,3.18A3.59,3.59,0,0,1,53.38,136Zm-.51-2a1.33,1.33,0,0,0,.51.09,1.29,1.29,0,0,0,.51-.09.91.91,0,0,0,.34-.25,1.18,1.18,0,0,0,.19-.39,2,2,0,0,0,.09-.47c0-.14,0-.32,0-.53v-6.06c0-.21,0-.39,0-.54a2,2,0,0,0-.09-.46,1.07,1.07,0,0,0-.19-.37.8.8,0,0,0-.34-.24,1.13,1.13,0,0,0-.51-.1,1.16,1.16,0,0,0-.51.1.73.73,0,0,0-.32.24,1,1,0,0,0-.19.38,2.61,2.61,0,0,0-.08.46,4.11,4.11,0,0,0,0,.53v6.06a4.11,4.11,0,0,0,0,.53,2.72,2.72,0,0,0,.08.47,1.18,1.18,0,0,0,.19.39A.83.83,0,0,0,52.87,134Z"/><path class="cls-3" d="M59,135.85V122.9h4q3.38,0,3.37,3.72a4.9,4.9,0,0,1-.26,1.72,2.55,2.55,0,0,1-.77,1.12,3.09,3.09,0,0,1-1.13.57,5.33,5.33,0,0,1-1.45.18H61.59v5.64Zm2.64-7.48h.84a1.42,1.42,0,0,0,1.17-.4,2.36,2.36,0,0,0,.3-1.39,8,8,0,0,0,0-.8,1.8,1.8,0,0,0-.19-.55.79.79,0,0,0-.45-.37,2.17,2.17,0,0,0-.79-.11h-.84Z"/><path class="cls-3" d="M67.65,135.85l.21-12.95h2.77l1.64,8.26L74,122.9h2.7l.21,12.95H75l-.18-8.74-1.68,8.74H71.49l-1.72-8.79-.17,8.79Z"/><path class="cls-3" d="M78.78,135.85V122.9h5.64v1.82h-3v3.43h2.34V130H81.41v4.05h3v1.8Z"/><path class="cls-3" d="M85.78,135.85V122.9h1.84l2.89,6.72V122.9H92.7v12.95H90.94L88,128.69v7.16Z"/><path class="cls-3" d="M95.84,135.85v-11H93.77V122.9h6.75v1.94h-2v11Z"/><path d="M164.69,69.06q-3.49,0-3.5-3.88v-.46h2.48v.4a3.51,3.51,0,0,0,.22,1.43.84.84,0,0,0,.82.44,1,1,0,0,0,.52-.12.68.68,0,0,0,.3-.38,2.16,2.16,0,0,0,.14-.57c0-.21,0-.47,0-.8a3.07,3.07,0,0,0-.31-1.53,1.27,1.27,0,0,0-1.12-.53h-.41V61.19h.37a1.37,1.37,0,0,0,1.15-.45,2.46,2.46,0,0,0,.32-1.42,2.43,2.43,0,0,0-.24-1.22.84.84,0,0,0-.8-.4.79.79,0,0,0-.79.44,3,3,0,0,0-.21,1.27V60h-2.48v-.7a3.61,3.61,0,0,1,.91-2.63,3.42,3.42,0,0,1,2.56-.93,3.52,3.52,0,0,1,2.58.9,4.06,4.06,0,0,1,.45,4.44,2.07,2.07,0,0,1-1.2,1c1.11.4,1.66,1.42,1.66,3.06a6.11,6.11,0,0,1-.19,1.62,3.8,3.8,0,0,1-.59,1.25,2.57,2.57,0,0,1-1.08.83A4.12,4.12,0,0,1,164.69,69.06Z"/><path d="M172.28,63.16a2.75,2.75,0,0,1-2.25-.83,4,4,0,0,1-.69-2.54v-.62a3.82,3.82,0,0,1,.67-2.52,2.83,2.83,0,0,1,2.27-.79,2.94,2.94,0,0,1,2.28.77,3.76,3.76,0,0,1,.68,2.49v.69a3.88,3.88,0,0,1-.7,2.53A2.8,2.8,0,0,1,172.28,63.16Zm0-1.61a.88.88,0,0,0,.41-.09.75.75,0,0,0,.27-.23,1.22,1.22,0,0,0,.15-.39,4.1,4.1,0,0,0,.06-.49c0-.16,0-.37,0-.62V59.2c0-.26,0-.47,0-.62a3.87,3.87,0,0,0-.06-.46.7.7,0,0,0-.41-.56,1.1,1.1,0,0,0-.43-.08,1,1,0,0,0-.43.08.79.79,0,0,0-.27.2.77.77,0,0,0-.14.36,3.87,3.87,0,0,0-.06.46c0,.15,0,.35,0,.61v.54c0,.21,0,.39,0,.53s0,.28,0,.43a1.39,1.39,0,0,0,.1.37,1,1,0,0,0,.16.26.55.55,0,0,0,.24.18A1.25,1.25,0,0,0,172.28,61.55Zm1.65,7.3,3.81-12.95h1.5l-3.81,12.95Zm7,0a2.75,2.75,0,0,1-2.25-.84,4,4,0,0,1-.69-2.54V64.9a3.87,3.87,0,0,1,.67-2.53,2.86,2.86,0,0,1,2.27-.79,2.9,2.9,0,0,1,2.28.78,3.71,3.71,0,0,1,.68,2.49v.68a3.86,3.86,0,0,1-.69,2.53A2.82,2.82,0,0,1,180.89,68.89Zm-.41-1.7a.86.86,0,0,0,.41.09.93.93,0,0,0,.42-.09.73.73,0,0,0,.26-.23,1.08,1.08,0,0,0,.15-.4,2.76,2.76,0,0,0,.07-.49c0-.16,0-.36,0-.62v-.53c0-.26,0-.47,0-.62a3.87,3.87,0,0,0-.06-.46.75.75,0,0,0-.15-.36.65.65,0,0,0-.26-.19,1.06,1.06,0,0,0-.43-.08,1,1,0,0,0-.42.08.69.69,0,0,0-.27.19.87.87,0,0,0-.14.36,4,4,0,0,0-.06.47c0,.15,0,.35,0,.61v.54c0,.25,0,.46,0,.62a3,3,0,0,0,.07.5.89.89,0,0,0,.15.38A.73.73,0,0,0,180.48,67.19Z"/><path d="M164.69,102.56q-3.49,0-3.5-3.88v-.46h2.48v.4a3.51,3.51,0,0,0,.22,1.43.84.84,0,0,0,.82.44,1,1,0,0,0,.52-.12.68.68,0,0,0,.3-.38,2.16,2.16,0,0,0,.14-.57c0-.21,0-.47,0-.8a3.07,3.07,0,0,0-.31-1.53,1.27,1.27,0,0,0-1.12-.53h-.41V94.69h.37a1.37,1.37,0,0,0,1.15-.45,2.46,2.46,0,0,0,.32-1.42,2.43,2.43,0,0,0-.24-1.22.84.84,0,0,0-.8-.4.79.79,0,0,0-.79.44,3,3,0,0,0-.21,1.27v.56h-2.48v-.7a3.61,3.61,0,0,1,.91-2.63,3.42,3.42,0,0,1,2.56-.93,3.52,3.52,0,0,1,2.58.9,4.06,4.06,0,0,1,.45,4.44,2.07,2.07,0,0,1-1.2,1c1.11.4,1.66,1.42,1.66,3.06a6.11,6.11,0,0,1-.19,1.62,3.8,3.8,0,0,1-.59,1.25,2.57,2.57,0,0,1-1.08.83A4.12,4.12,0,0,1,164.69,102.56Z"/><path d="M172.28,96.66a2.75,2.75,0,0,1-2.25-.83,4,4,0,0,1-.69-2.54v-.62a3.82,3.82,0,0,1,.67-2.52,2.83,2.83,0,0,1,2.27-.79,2.94,2.94,0,0,1,2.28.77,3.76,3.76,0,0,1,.68,2.49v.69a3.88,3.88,0,0,1-.7,2.53A2.8,2.8,0,0,1,172.28,96.66Zm0-1.61a.88.88,0,0,0,.41-.09.75.75,0,0,0,.27-.23,1.22,1.22,0,0,0,.15-.39,4.1,4.1,0,0,0,.06-.49c0-.16,0-.37,0-.62V92.7c0-.26,0-.47,0-.62a3.87,3.87,0,0,0-.06-.46.7.7,0,0,0-.41-.56,1.1,1.1,0,0,0-.43-.08,1,1,0,0,0-.43.08.79.79,0,0,0-.27.2.77.77,0,0,0-.14.36,3.87,3.87,0,0,0-.06.46c0,.15,0,.35,0,.61v.54c0,.21,0,.39,0,.53s0,.28,0,.43a1.39,1.39,0,0,0,.1.37,1,1,0,0,0,.16.26.55.55,0,0,0,.24.18A1.25,1.25,0,0,0,172.28,95.05Zm1.65,7.3,3.81-12.95h1.5l-3.81,12.95Zm7,0a2.75,2.75,0,0,1-2.25-.84A4,4,0,0,1,178,99V98.4a3.87,3.87,0,0,1,.67-2.53,2.86,2.86,0,0,1,2.27-.79,2.9,2.9,0,0,1,2.28.78,3.71,3.71,0,0,1,.68,2.49V99a3.86,3.86,0,0,1-.69,2.53A2.82,2.82,0,0,1,180.89,102.39Zm-.41-1.7a.86.86,0,0,0,.41.09.93.93,0,0,0,.42-.09.73.73,0,0,0,.26-.23,1.08,1.08,0,0,0,.15-.4,2.76,2.76,0,0,0,.07-.49c0-.16,0-.36,0-.62v-.53c0-.26,0-.47,0-.62a3.87,3.87,0,0,0-.06-.46.75.75,0,0,0-.15-.36.65.65,0,0,0-.26-.19,1.06,1.06,0,0,0-.43-.08,1,1,0,0,0-.42.08.69.69,0,0,0-.27.19.87.87,0,0,0-.14.36,4,4,0,0,0-.06.47c0,.15,0,.35,0,.61V99c0,.25,0,.46,0,.62a3,3,0,0,0,.07.5.89.89,0,0,0,.15.38A.73.73,0,0,0,180.48,100.69Z"/><path d="M161.24,135.85v-1.74l3.12-4.85.37-.56c.21-.32.34-.53.41-.65l.29-.56a2.9,2.9,0,0,0,.33-1.38,1.63,1.63,0,0,0-.27-1,.77.77,0,0,0-.64-.29h-.14q-1,.11-1,1.92v.59h-2.41v-.62a6,6,0,0,1,.2-1.6,3.72,3.72,0,0,1,.6-1.25,2.71,2.71,0,0,1,1.09-.84,4.21,4.21,0,0,1,1.61-.29,3.4,3.4,0,0,1,2.56.9,3.48,3.48,0,0,1,.87,2.52,4.59,4.59,0,0,1-.12,1.06,4,4,0,0,1-.35,1c-.17.32-.31.6-.45.82s-.33.52-.57.87a2.83,2.83,0,0,0-.17.25l-2.5,3.77h3.81v2Z"/><path d="M172.32,130.16a2.78,2.78,0,0,1-2.25-.83,4,4,0,0,1-.68-2.54v-.62a3.82,3.82,0,0,1,.67-2.52,2.8,2.8,0,0,1,2.26-.79,2.91,2.91,0,0,1,2.28.77,3.71,3.71,0,0,1,.68,2.49v.69a3.88,3.88,0,0,1-.69,2.53A2.82,2.82,0,0,1,172.32,130.16Zm0-1.61a.93.93,0,0,0,.42-.09.75.75,0,0,0,.27-.23,1,1,0,0,0,.14-.39,2.76,2.76,0,0,0,.07-.49c0-.16,0-.37,0-.62v-.53c0-.26,0-.47,0-.62a2.49,2.49,0,0,0-.05-.46.67.67,0,0,0-.15-.36.64.64,0,0,0-.27-.2,1.06,1.06,0,0,0-.43-.08,1,1,0,0,0-.42.08.71.71,0,0,0-.27.2.77.77,0,0,0-.14.36,3.87,3.87,0,0,0-.06.46c0,.15,0,.35,0,.61v.54c0,.21,0,.39,0,.53s0,.28,0,.43a1.43,1.43,0,0,0,.09.37,2.26,2.26,0,0,0,.16.26.64.64,0,0,0,.25.18A1.23,1.23,0,0,0,172.32,128.55Zm1.66,7.3,3.8-12.95h1.51l-3.81,12.95Zm7,0a2.75,2.75,0,0,1-2.25-.84,3.89,3.89,0,0,1-.7-2.54v-.61a3.87,3.87,0,0,1,.68-2.53,2.85,2.85,0,0,1,2.27-.79,2.91,2.91,0,0,1,2.28.78,3.76,3.76,0,0,1,.68,2.49v.68a3.86,3.86,0,0,1-.69,2.53A2.82,2.82,0,0,1,180.94,135.89Zm-.41-1.7a1,1,0,0,0,.82,0,.69.69,0,0,0,.27-.23,1.29,1.29,0,0,0,.15-.4,2.73,2.73,0,0,0,.06-.49c0-.16,0-.36,0-.62v-.53c0-.26,0-.47,0-.62a2.49,2.49,0,0,0-.05-.46.87.87,0,0,0-.15-.36.65.65,0,0,0-.26-.19,1.2,1.2,0,0,0-.86,0,.65.65,0,0,0-.26.19.87.87,0,0,0-.15.36,2.59,2.59,0,0,0,0,.47c0,.15,0,.35,0,.61v.54c0,.25,0,.46,0,.62a3,3,0,0,0,.07.5,1,1,0,0,0,.14.38A.87.87,0,0,0,180.53,134.19Z"/><path d="M229.51,68.85l2.67-11.07h-3.47V55.9h5.89v1.58l-2.69,11.37Z"/><path d="M239,63.16a2.78,2.78,0,0,1-2.25-.83,4,4,0,0,1-.69-2.54v-.62a3.88,3.88,0,0,1,.67-2.52,2.84,2.84,0,0,1,2.27-.79,2.91,2.91,0,0,1,2.28.77,3.76,3.76,0,0,1,.68,2.49v.69a3.88,3.88,0,0,1-.69,2.53A2.82,2.82,0,0,1,239,63.16Zm0-1.61a.86.86,0,0,0,.41-.09.62.62,0,0,0,.27-.23.88.88,0,0,0,.15-.39,2.76,2.76,0,0,0,.07-.49c0-.16,0-.37,0-.62V59.2c0-.26,0-.47,0-.62a2.53,2.53,0,0,0-.06-.46.77.77,0,0,0-.14-.36.79.79,0,0,0-.27-.2,1.06,1.06,0,0,0-.43-.08,1.1,1.1,0,0,0-.43.08.67.67,0,0,0-.26.2.76.76,0,0,0-.15.36,2.49,2.49,0,0,0,0,.46c0,.15,0,.35,0,.61v.54c0,.21,0,.39,0,.53a3.28,3.28,0,0,0,0,.43,1.43,1.43,0,0,0,.09.37,1.4,1.4,0,0,0,.16.26.64.64,0,0,0,.25.18A1.18,1.18,0,0,0,239,61.55Zm1.66,7.3,3.8-12.95H246l-3.81,12.95Zm7,0a2.77,2.77,0,0,1-2.26-.84,4,4,0,0,1-.69-2.54V64.9a3.93,3.93,0,0,1,.67-2.53,3.69,3.69,0,0,1,4.55,0,3.7,3.7,0,0,1,.69,2.49v.68a3.8,3.8,0,0,1-.7,2.53A2.8,2.8,0,0,1,247.6,68.89Zm-.41-1.7a1,1,0,0,0,.82,0,.77.77,0,0,0,.27-.23,1.29,1.29,0,0,0,.15-.4,4.1,4.1,0,0,0,.06-.49c0-.16,0-.36,0-.62v-.53c0-.26,0-.47,0-.62a3.87,3.87,0,0,0-.06-.46.87.87,0,0,0-.14-.36.69.69,0,0,0-.27-.19,1,1,0,0,0-.42-.08,1.06,1.06,0,0,0-.43.08.65.65,0,0,0-.26.19.75.75,0,0,0-.15.36,4,4,0,0,0-.06.47c0,.15,0,.35,0,.61v.54c0,.25,0,.46,0,.62a4.53,4.53,0,0,0,.06.5,1.25,1.25,0,0,0,.15.38A.77.77,0,0,0,247.19,67.19Z"/><path d="M231.73,102.56q-3.49,0-3.5-3.88v-.46h2.48v.4a3.51,3.51,0,0,0,.22,1.43.84.84,0,0,0,.82.44,1,1,0,0,0,.52-.12.68.68,0,0,0,.3-.38,2.16,2.16,0,0,0,.14-.57c0-.21,0-.47,0-.8a3.07,3.07,0,0,0-.31-1.53,1.26,1.26,0,0,0-1.12-.53h-.41V94.69h.37a1.37,1.37,0,0,0,1.15-.45,2.46,2.46,0,0,0,.32-1.42,2.56,2.56,0,0,0-.23-1.22.86.86,0,0,0-.81-.4.79.79,0,0,0-.79.44,3,3,0,0,0-.21,1.27v.56h-2.48v-.7a3.61,3.61,0,0,1,.91-2.63,3.44,3.44,0,0,1,2.56-.93,3.52,3.52,0,0,1,2.58.9,4.06,4.06,0,0,1,.45,4.44,2.07,2.07,0,0,1-1.2,1c1.11.4,1.66,1.42,1.66,3.06a6.11,6.11,0,0,1-.19,1.62,3.8,3.8,0,0,1-.59,1.25,2.57,2.57,0,0,1-1.08.83A4.12,4.12,0,0,1,231.73,102.56Z"/><path d="M239.32,96.66a2.75,2.75,0,0,1-2.25-.83,4,4,0,0,1-.69-2.54v-.62a3.82,3.82,0,0,1,.67-2.52,2.83,2.83,0,0,1,2.27-.79,2.94,2.94,0,0,1,2.28.77,3.76,3.76,0,0,1,.68,2.49v.69a3.82,3.82,0,0,1-.7,2.53A2.8,2.8,0,0,1,239.32,96.66Zm0-1.61a.86.86,0,0,0,.41-.09.75.75,0,0,0,.27-.23,1,1,0,0,0,.15-.39,4.1,4.1,0,0,0,.06-.49,5.54,5.54,0,0,0,0-.62V92.7c0-.26,0-.47,0-.62a3.87,3.87,0,0,0-.06-.46.77.77,0,0,0-.14-.36.79.79,0,0,0-.27-.2,1.1,1.1,0,0,0-.43-.08,1,1,0,0,0-.43.08.79.79,0,0,0-.27.2.77.77,0,0,0-.14.36,3.87,3.87,0,0,0-.06.46c0,.15,0,.35,0,.61v.54c0,.21,0,.39,0,.53s0,.28,0,.43a1.92,1.92,0,0,0,.1.37,1,1,0,0,0,.16.26A.61.61,0,0,0,239,95,1.25,1.25,0,0,0,239.32,95.05Zm1.65,7.3,3.81-12.95h1.5l-3.81,12.95Zm7,0a2.75,2.75,0,0,1-2.25-.84A4,4,0,0,1,245,99V98.4a3.87,3.87,0,0,1,.67-2.53,3.69,3.69,0,0,1,4.55,0,3.71,3.71,0,0,1,.68,2.49V99a3.86,3.86,0,0,1-.69,2.53A2.81,2.81,0,0,1,247.93,102.39Zm-.41-1.7a.88.88,0,0,0,.41.09.93.93,0,0,0,.42-.09.73.73,0,0,0,.26-.23.93.93,0,0,0,.15-.4,2.76,2.76,0,0,0,.07-.49c0-.16,0-.36,0-.62v-.53c0-.26,0-.47,0-.62a3.87,3.87,0,0,0-.06-.46.75.75,0,0,0-.15-.36.65.65,0,0,0-.26-.19,1,1,0,0,0-.43-.08,1,1,0,0,0-.42.08.77.77,0,0,0-.27.19.87.87,0,0,0-.14.36,4,4,0,0,0-.06.47c0,.15,0,.35,0,.61V99c0,.25,0,.46,0,.62a3,3,0,0,0,.07.5.89.89,0,0,0,.15.38A.73.73,0,0,0,247.52,100.69Z"/><path d="M228.28,135.85v-1.74l3.12-4.85.37-.56c.21-.32.34-.53.41-.65l.29-.56a2.9,2.9,0,0,0,.33-1.38,1.63,1.63,0,0,0-.27-1,.77.77,0,0,0-.64-.29h-.14q-1,.11-1,1.92v.59h-2.41v-.62a6,6,0,0,1,.2-1.6,3.72,3.72,0,0,1,.6-1.25,2.71,2.71,0,0,1,1.09-.84,4.21,4.21,0,0,1,1.61-.29,3.4,3.4,0,0,1,2.56.9,3.48,3.48,0,0,1,.87,2.52,4.59,4.59,0,0,1-.12,1.06,4,4,0,0,1-.35,1c-.16.32-.31.6-.45.82s-.33.52-.57.87a2.83,2.83,0,0,0-.17.25l-2.5,3.77h3.81v2Z"/><path d="M239.36,130.16a2.78,2.78,0,0,1-2.25-.83,4,4,0,0,1-.68-2.54v-.62a3.82,3.82,0,0,1,.67-2.52,2.82,2.82,0,0,1,2.26-.79,2.91,2.91,0,0,1,2.28.77,3.71,3.71,0,0,1,.68,2.49v.69a3.88,3.88,0,0,1-.69,2.53A2.82,2.82,0,0,1,239.36,130.16Zm0-1.61a.93.93,0,0,0,.42-.09.75.75,0,0,0,.27-.23,1.22,1.22,0,0,0,.15-.39,4.1,4.1,0,0,0,.06-.49c0-.16,0-.37,0-.62v-.53c0-.26,0-.47,0-.62a3.87,3.87,0,0,0-.06-.46.67.67,0,0,0-.15-.36.64.64,0,0,0-.27-.2,1.06,1.06,0,0,0-.43-.08,1,1,0,0,0-.42.08.71.71,0,0,0-.27.2.77.77,0,0,0-.14.36,3.87,3.87,0,0,0-.06.46c0,.15,0,.35,0,.61v.54c0,.21,0,.39,0,.53s0,.28,0,.43a1.1,1.1,0,0,0,.1.37,1,1,0,0,0,.16.26.55.55,0,0,0,.24.18A1.23,1.23,0,0,0,239.36,128.55Zm1.66,7.3,3.8-12.95h1.51l-3.81,12.95Zm7,0a2.75,2.75,0,0,1-2.25-.84,4,4,0,0,1-.7-2.54v-.61a3.87,3.87,0,0,1,.68-2.53,2.86,2.86,0,0,1,2.27-.79,2.91,2.91,0,0,1,2.28.78,3.76,3.76,0,0,1,.68,2.49v.68a3.86,3.86,0,0,1-.69,2.53A2.82,2.82,0,0,1,248,135.89Zm-.41-1.7a1,1,0,0,0,.82,0,.69.69,0,0,0,.27-.23,1.29,1.29,0,0,0,.15-.4,2.73,2.73,0,0,0,.06-.49c0-.16,0-.36,0-.62v-.53c0-.26,0-.47,0-.62a2.49,2.49,0,0,0-.05-.46.87.87,0,0,0-.15-.36.65.65,0,0,0-.26-.19,1.2,1.2,0,0,0-.86,0,.65.65,0,0,0-.26.19.87.87,0,0,0-.15.36,2.59,2.59,0,0,0,0,.47c0,.15,0,.35,0,.61v.54c0,.25,0,.46,0,.62a3,3,0,0,0,.07.5,1,1,0,0,0,.14.38A.87.87,0,0,0,247.57,134.19Z"/><path class="cls-3" d="M311.61,77.1V63.34H309V60.91h8.43v2.43H314.9V77.1Z"/><path class="cls-3" d="M323.32,77.31a6.48,6.48,0,0,1-2.25-.35,3.4,3.4,0,0,1-1.48-1.07,4.58,4.58,0,0,1-.8-1.66,8.87,8.87,0,0,1-.25-2.26V66a8.84,8.84,0,0,1,.25-2.25,4.41,4.41,0,0,1,.8-1.64,3.44,3.44,0,0,1,1.48-1.05,6.48,6.48,0,0,1,2.25-.35A4.54,4.54,0,0,1,327,62,6,6,0,0,1,328.12,66v6A6.11,6.11,0,0,1,327,76,4.49,4.49,0,0,1,323.32,77.31Zm-.64-2.49a1.77,1.77,0,0,0,1.28,0,1.15,1.15,0,0,0,.42-.31,1.4,1.4,0,0,0,.24-.49,4.21,4.21,0,0,0,.11-.58c0-.19,0-.41,0-.67V65.19c0-.26,0-.48,0-.67a4.38,4.38,0,0,0-.11-.57,1.38,1.38,0,0,0-.24-.47,1.13,1.13,0,0,0-.42-.3,1.77,1.77,0,0,0-1.28,0,1.18,1.18,0,0,0-.41.3A1.34,1.34,0,0,0,322,64a3.11,3.11,0,0,0-.1.57,6.12,6.12,0,0,0,0,.66v7.58a6.45,6.45,0,0,0,0,.67,3.07,3.07,0,0,0,.1.58,1.4,1.4,0,0,0,.23.49A1.2,1.2,0,0,0,322.68,74.82Z"/><path class="cls-3" d="M331.81,77.1V63.34h-2.58V60.91h8.42v2.43H335.1V77.1Z"/><path class="cls-3" d="M338.1,77.1l3.17-16.19h3.61L348,77.1h-3l-.6-3.59h-2.57l-.59,3.59Zm4-5.63h1.92l-1-6.44Z"/><path class="cls-3" d="M349.64,77.1V60.91h3.29V74.85h3.78V77.1Z"/><path class="cls-3" d="M367.51,77.31a4.28,4.28,0,0,1-3.37-1.24,5.88,5.88,0,0,1-1.21-3.81l2.85-.5a5.48,5.48,0,0,0,.4,2.28,1.26,1.26,0,0,0,1.19.76.93.93,0,0,0,.83-.37,1.58,1.58,0,0,0,.26-1,2.89,2.89,0,0,0-.41-1.6,7.29,7.29,0,0,0-1.33-1.45L365,68.91a8.27,8.27,0,0,1-1.07-1.07,4.68,4.68,0,0,1-.69-1.28,5.28,5.28,0,0,1-.27-1.73,3.92,3.92,0,0,1,1.16-3,4.55,4.55,0,0,1,3.19-1.09,5.37,5.37,0,0,1,1.25.14,3.44,3.44,0,0,1,1,.37,2.91,2.91,0,0,1,.72.59,3.39,3.39,0,0,1,.51.72,4.7,4.7,0,0,1,.33.85,7.06,7.06,0,0,1,.2.9c0,.28.06.59.08.92l-2.83.45c0-.33,0-.61,0-.83a4.48,4.48,0,0,0-.11-.69,1.57,1.57,0,0,0-.22-.55.91.91,0,0,0-.37-.33,1.1,1.1,0,0,0-.56-.11,1.08,1.08,0,0,0-.84.42,1.52,1.52,0,0,0-.3,1,3.3,3.3,0,0,0,.1.8,2.12,2.12,0,0,0,.34.67,4.4,4.4,0,0,0,.43.52c.12.13.31.31.55.53l1.71,1.48c.36.33.68.65,1,1a7.87,7.87,0,0,1,.76,1,4.67,4.67,0,0,1,.56,1.29,5.9,5.9,0,0,1,.19,1.49,3.93,3.93,0,0,1-1.15,2.9A4.09,4.09,0,0,1,367.51,77.31Z"/><path class="cls-3" d="M378,77.31a6.51,6.51,0,0,1-2.28-.35,3.1,3.1,0,0,1-1.45-1.09,4.63,4.63,0,0,1-.74-1.69,11,11,0,0,1-.21-2.33V60.91h3.23V72.27c0,.31,0,.57,0,.79a6.7,6.7,0,0,0,.11.7,1.87,1.87,0,0,0,.24.6,1.19,1.19,0,0,0,.42.38,1.34,1.34,0,0,0,.66.15,1.4,1.4,0,0,0,.66-.15,1.19,1.19,0,0,0,.42-.38,1.67,1.67,0,0,0,.23-.6,3.74,3.74,0,0,0,.11-.7c0-.21,0-.47,0-.79V60.91h3.23V71.85a11,11,0,0,1-.21,2.33,4.62,4.62,0,0,1-.73,1.69A3.12,3.12,0,0,1,380.25,77,6.6,6.6,0,0,1,378,77.31Z"/><path class="cls-3" d="M384.92,77.1V60.91H390q4.22,0,4.22,4.64a6,6,0,0,1-.34,2.16,3.16,3.16,0,0,1-.95,1.39,3.92,3.92,0,0,1-1.42.73,7.09,7.09,0,0,1-1.82.22h-1.46v7Zm3.29-9.36h1.05a1.76,1.76,0,0,0,1.47-.49,3,3,0,0,0,.37-1.73,8.63,8.63,0,0,0-.05-1,2.18,2.18,0,0,0-.24-.69,1,1,0,0,0-.55-.46,3,3,0,0,0-1-.14h-1.05Z"/><path class="cls-3" d="M395.83,77.1V60.91h5.06q4.22,0,4.21,4.64a6.29,6.29,0,0,1-.33,2.16,3.16,3.16,0,0,1-.95,1.39,3.92,3.92,0,0,1-1.42.73,7.09,7.09,0,0,1-1.82.22h-1.46v7Zm3.29-9.36h1.05a1.76,1.76,0,0,0,1.47-.49,3,3,0,0,0,.37-1.73,6.64,6.64,0,0,0-.06-1,1.94,1.94,0,0,0-.23-.69,1,1,0,0,0-.56-.46,3,3,0,0,0-1-.14h-1.05Z"/><path class="cls-3" d="M406.74,77.1V60.91H410V74.85h3.78V77.1Z"/><path class="cls-3" d="M416.8,77.1V70.68l-3.17-9.77h3.09l1.74,5.72,1.63-5.72h3L420,70.68V77.1Z"/><path d="M432.56,77.1V64.15l-2.42.83V62.67a19.14,19.14,0,0,0,1.77-.82,4.86,4.86,0,0,0,1.35-.94h2.39V77.1Z"/><path d="M444.89,77.1V60.91H449a11.11,11.11,0,0,1,1.61.1,5.74,5.74,0,0,1,1.36.39,3.09,3.09,0,0,1,1.09.74,3.14,3.14,0,0,1,.68,1.21A5.62,5.62,0,0,1,454,65v.08q0,2.91-2.37,3.3,2.84.43,2.86,3.94v.11a4.67,4.67,0,0,1-1.19,3.46,4.87,4.87,0,0,1-3.54,1.19Zm3.29-9.66H449a2.09,2.09,0,0,0,1.67-.54,2.72,2.72,0,0,0,.45-1.75,1.84,1.84,0,0,0-.58-1.56,3.08,3.08,0,0,0-1.83-.44h-.5Zm0,7.34h.9a2.12,2.12,0,0,0,1.72-.58,3,3,0,0,0,.49-1.9,3.09,3.09,0,0,0-.53-2,2.25,2.25,0,0,0-1.78-.6h-.8Z"/><path d="M456.41,77.1V60.91h3.27V77.1Z"/><path d="M462.13,77.1V60.91h3.29V74.85h3.78V77.1Z"/><path d="M470.77,77.1V60.91h3.29V74.85h3.78V77.1Z"/><path d="M479.47,77.1V60.91h3.27V77.1Z"/><path d="M489.71,77.31a6.42,6.42,0,0,1-2.24-.35A3.4,3.4,0,0,1,486,75.89a4.42,4.42,0,0,1-.8-1.66,8.87,8.87,0,0,1-.25-2.26V66a8.84,8.84,0,0,1,.25-2.25,4.26,4.26,0,0,1,.8-1.64,3.44,3.44,0,0,1,1.48-1.05,6.42,6.42,0,0,1,2.24-.35A4.55,4.55,0,0,1,493.4,62,6,6,0,0,1,494.52,66v6a6.11,6.11,0,0,1-1.12,4A4.49,4.49,0,0,1,489.71,77.31Zm-.63-2.49a1.51,1.51,0,0,0,.63.12,1.56,1.56,0,0,0,.64-.12,1.15,1.15,0,0,0,.42-.31A1.4,1.4,0,0,0,491,74a2.47,2.47,0,0,0,.11-.58,6.45,6.45,0,0,0,0-.67V65.19a6.45,6.45,0,0,0,0-.67A2.48,2.48,0,0,0,491,64a1.38,1.38,0,0,0-.24-.47,1.13,1.13,0,0,0-.42-.3,1.56,1.56,0,0,0-.64-.12,1.51,1.51,0,0,0-.63.12,1.09,1.09,0,0,0-.41.3,1.19,1.19,0,0,0-.23.48,3.17,3.17,0,0,0-.11.57c0,.18,0,.4,0,.66v7.58c0,.26,0,.48,0,.67a3.11,3.11,0,0,0,.11.58,1.24,1.24,0,0,0,.23.49A1.11,1.11,0,0,0,489.08,74.82Z"/><path d="M496.68,77.1V60.91H499l3.61,8.4v-8.4h2.74V77.1h-2.2l-3.63-8.95V77.1Z"/><path class="cls-3" d="M310,104.1l.26-16.19h3.47l2,10.33L318,87.91h3.36l.27,16.19h-2.41L319,93.17l-2.1,10.93h-2l-2.16-11-.2,11Z"/><path class="cls-3" d="M323.15,104.1l3.17-16.19h3.61l3.15,16.19H330l-.6-3.59h-2.57l-.59,3.59Zm4-5.63h1.93l-1-6.44Z"/><path class="cls-3" d="M333.65,104.1l3.2-8.66-3.08-7.53h3.1l1.92,4.66,1.6-4.66h2.82l-3,8.26,3.23,7.93H340.4L338.3,99l-1.86,5.1Z"/><path class="cls-3" d="M344.9,104.1V87.91h3.27V104.1Z"/><path class="cls-3" d="M350.57,104.1l.27-16.19h3.46l2,10.33,2.15-10.33h3.37l.27,16.19h-2.42l-.22-10.93-2.1,10.93h-2l-2.16-11-.21,11Z"/><path class="cls-3" d="M369.05,104.31a6.54,6.54,0,0,1-2.28-.35,3.1,3.1,0,0,1-1.45-1.09,4.62,4.62,0,0,1-.73-1.69,10.35,10.35,0,0,1-.22-2.33V87.91h3.23V99.27c0,.31,0,.57,0,.79a4.8,4.8,0,0,0,.11.7,1.67,1.67,0,0,0,.23.6,1.15,1.15,0,0,0,.43.38,1.33,1.33,0,0,0,.65.15,1.4,1.4,0,0,0,.66-.15,1.11,1.11,0,0,0,.42-.38,1.87,1.87,0,0,0,.24-.6,4.8,4.8,0,0,0,.11-.7c0-.21,0-.47,0-.79V87.91h3.24V98.85a10.35,10.35,0,0,1-.22,2.33,4.45,4.45,0,0,1-.73,1.69,3.07,3.07,0,0,1-1.44,1.09A6.6,6.6,0,0,1,369.05,104.31Z"/><path class="cls-3" d="M376,104.1l.27-16.19h3.46l2,10.33,2.15-10.33h3.37l.27,16.19h-2.42l-.22-10.93-2.1,10.93h-2l-2.16-11-.21,11Z"/><path class="cls-3" d="M396.45,104.1V90.34h-2.59V87.91h8.43v2.43h-2.55V104.1Z"/><path class="cls-3" d="M403.63,104.1V87.91h4.09a10.26,10.26,0,0,1,2.22.2,4.55,4.55,0,0,1,1.64.68,2.88,2.88,0,0,1,1.08,1.32A5.41,5.41,0,0,1,413,92.2a6,6,0,0,1-.44,2.53A3,3,0,0,1,411,96.2l2.24,7.9h-3.36l-1.86-7.31h-1.14v7.31Zm3.29-9.3h.82a2.17,2.17,0,0,0,1.69-.56,2.68,2.68,0,0,0,.5-1.79,2.86,2.86,0,0,0-.44-1.76,1.91,1.91,0,0,0-1.56-.55h-1Z"/><path class="cls-3" d="M414.4,104.1l3.17-16.19h3.61l3.15,16.19h-3.05l-.6-3.59h-2.57l-.59,3.59Zm4-5.63h1.93l-1-6.44Z"/><path class="cls-3" d="M425.93,104.1V87.91h2.3l3.61,8.4v-8.4h2.74V104.1h-2.2l-3.63-8.95v8.95Z"/><path class="cls-3" d="M441.18,104.31a4.28,4.28,0,0,1-3.37-1.24,5.88,5.88,0,0,1-1.21-3.81l2.85-.5a5.3,5.3,0,0,0,.41,2.28,1.24,1.24,0,0,0,1.18.76,1,1,0,0,0,.84-.37,1.65,1.65,0,0,0,.26-1,2.89,2.89,0,0,0-.42-1.6,7.29,7.29,0,0,0-1.33-1.45l-1.74-1.51a9,9,0,0,1-1.07-1.07,4.41,4.41,0,0,1-.68-1.28,5,5,0,0,1-.28-1.73,4,4,0,0,1,1.16-3A4.57,4.57,0,0,1,441,87.7a5.31,5.31,0,0,1,1.25.14,3.51,3.51,0,0,1,1,.37,2.86,2.86,0,0,1,.71.59,3.39,3.39,0,0,1,.51.72,4.7,4.7,0,0,1,.33.85,7.06,7.06,0,0,1,.2.9c0,.28.07.59.09.92l-2.84.45c0-.33,0-.61,0-.83a4.55,4.55,0,0,0-.12-.69,1.57,1.57,0,0,0-.22-.55.91.91,0,0,0-.37-.33,1.06,1.06,0,0,0-.55-.11,1.08,1.08,0,0,0-.85.42,1.52,1.52,0,0,0-.3,1,2.86,2.86,0,0,0,.11.8,2.09,2.09,0,0,0,.33.67,4.4,4.4,0,0,0,.43.52c.12.13.31.31.55.53l1.71,1.48c.36.33.68.65.95,1a7.91,7.91,0,0,1,.77,1,5,5,0,0,1,.55,1.29,5.48,5.48,0,0,1,.19,1.49,3.89,3.89,0,0,1-1.15,2.9A4.07,4.07,0,0,1,441.18,104.31Z"/><path class="cls-3" d="M446.27,104.1l3.16-16.19H453l3.16,16.19h-3.06l-.59-3.59H450l-.6,3.59Zm4-5.63h1.92l-1-6.44Z"/><path class="cls-3" d="M462.3,104.31a6.07,6.07,0,0,1-2.26-.38,3.4,3.4,0,0,1-1.48-1.13,4.88,4.88,0,0,1-.77-1.7,9.27,9.27,0,0,1-.23-2.23V93.16a9.53,9.53,0,0,1,.23-2.28,4.64,4.64,0,0,1,.77-1.7A3.31,3.31,0,0,1,460,88.07a6.1,6.1,0,0,1,2.27-.37,6.21,6.21,0,0,1,2.16.33,3.16,3.16,0,0,1,1.41,1,4,4,0,0,1,.74,1.46,7,7,0,0,1,.23,1.93v1.41h-3.21V91.88c0-.07,0-.19,0-.35s0-.28,0-.35,0-.16-.07-.3a.85.85,0,0,0-.11-.28l-.16-.21a.49.49,0,0,0-.23-.18,1.89,1.89,0,0,0-.31-.1,1.68,1.68,0,0,0-.4,0,1.45,1.45,0,0,0-.65.14,1,1,0,0,0-.41.32,1.35,1.35,0,0,0-.23.54,5.29,5.29,0,0,0-.1.62c0,.19,0,.44,0,.73v7.23a3.84,3.84,0,0,0,.29,1.74,1.15,1.15,0,0,0,1.11.56,1.82,1.82,0,0,0,.55-.08.76.76,0,0,0,.37-.26,2.09,2.09,0,0,0,.23-.35,1.84,1.84,0,0,0,.12-.48c0-.21,0-.39,0-.53s0-.34,0-.6V98.06h3.21v1.37a7.75,7.75,0,0,1-.22,2,4.33,4.33,0,0,1-.71,1.52,3.22,3.22,0,0,1-1.41,1A6.23,6.23,0,0,1,462.3,104.31Z"/><path class="cls-3" d="M470.36,104.1V90.34h-2.59V87.91h8.43v2.43h-2.55V104.1Z"/><path class="cls-3" d="M477.59,104.1V87.91h3.28V104.1Z"/><path class="cls-3" d="M487.84,104.31a6.48,6.48,0,0,1-2.25-.35,3.4,3.4,0,0,1-1.48-1.07,4.75,4.75,0,0,1-.8-1.66,9.34,9.34,0,0,1-.25-2.26V93a9.31,9.31,0,0,1,.25-2.25,4.57,4.57,0,0,1,.8-1.64,3.44,3.44,0,0,1,1.48-1,6.48,6.48,0,0,1,2.25-.35A4.58,4.58,0,0,1,491.53,89,6.06,6.06,0,0,1,492.64,93v6a6.17,6.17,0,0,1-1.11,4A4.52,4.52,0,0,1,487.84,104.31Zm-.64-2.49a1.77,1.77,0,0,0,1.28,0,1.15,1.15,0,0,0,.42-.31,1.4,1.4,0,0,0,.24-.49,3.11,3.11,0,0,0,.11-.58c0-.19,0-.41,0-.67V92.19c0-.26,0-.48,0-.67a3.17,3.17,0,0,0-.11-.57,1.38,1.38,0,0,0-.24-.47,1.13,1.13,0,0,0-.42-.3,1.77,1.77,0,0,0-1.28,0,1.18,1.18,0,0,0-.41.3,1.53,1.53,0,0,0-.23.48,3.11,3.11,0,0,0-.1.57,6.12,6.12,0,0,0,0,.66v7.58a6.45,6.45,0,0,0,0,.67,3.07,3.07,0,0,0,.1.58,1.6,1.6,0,0,0,.23.49A1.2,1.2,0,0,0,487.2,101.82Z"/><path class="cls-3" d="M494.8,104.1V87.91h2.3l3.61,8.4v-8.4h2.73V104.1h-2.19l-3.64-8.95v8.95Z"/><path d="M513.91,104.1V91.15L511.5,92V89.67a17.9,17.9,0,0,0,1.76-.82,4.93,4.93,0,0,0,1.36-.94H517V104.1Z"/><path d="M524.54,97a3.43,3.43,0,0,1-2.81-1,4.86,4.86,0,0,1-.86-3.17V92a4.84,4.84,0,0,1,.84-3.16,3.56,3.56,0,0,1,2.83-1,3.62,3.62,0,0,1,2.85,1,4.64,4.64,0,0,1,.85,3.11v.86a4.83,4.83,0,0,1-.87,3.16A3.5,3.5,0,0,1,524.54,97Zm0-2a1.08,1.08,0,0,0,.52-.12.91.91,0,0,0,.33-.28,1.32,1.32,0,0,0,.19-.49,4.58,4.58,0,0,0,.08-.62c0-.2,0-.46,0-.77V92c0-.33,0-.59,0-.78a4.24,4.24,0,0,0-.08-.58,1.05,1.05,0,0,0-.18-.45.8.8,0,0,0-.34-.24,1.19,1.19,0,0,0-.53-.1,1.17,1.17,0,0,0-.53.1.87.87,0,0,0-.34.24,1.05,1.05,0,0,0-.18.45,4.16,4.16,0,0,0-.07.58c0,.19,0,.44,0,.77v.67c0,.26,0,.48,0,.66s0,.35.05.54a2,2,0,0,0,.12.46,1.38,1.38,0,0,0,.2.33.7.7,0,0,0,.31.22A1.4,1.4,0,0,0,524.54,95Zm2.07,9.12,4.75-16.19h1.89l-4.77,16.19Zm8.7.05a3.46,3.46,0,0,1-2.82-1.05,5,5,0,0,1-.86-3.18v-.76a4.84,4.84,0,0,1,.84-3.16,3.54,3.54,0,0,1,2.84-1,3.62,3.62,0,0,1,2.85,1A4.64,4.64,0,0,1,539,99.1V100a4.86,4.86,0,0,1-.87,3.17A3.53,3.53,0,0,1,535.31,104.15ZM534.8,102a1,1,0,0,0,.51.11,1.08,1.08,0,0,0,.52-.11.85.85,0,0,0,.33-.29,1.26,1.26,0,0,0,.18-.49,3.46,3.46,0,0,0,.09-.61c0-.2,0-.46,0-.78v-.66c0-.33,0-.59,0-.78a4.24,4.24,0,0,0-.08-.58.9.9,0,0,0-.18-.44,1,1,0,0,0-.33-.25,1.36,1.36,0,0,0-.53-.09,1.33,1.33,0,0,0-.53.09,1,1,0,0,0-.33.25.94.94,0,0,0-.19.45c0,.2-.06.39-.07.58s0,.44,0,.77v.67c0,.31,0,.57,0,.78a4.58,4.58,0,0,0,.08.62,1.27,1.27,0,0,0,.18.48A1,1,0,0,0,534.8,102Z"/><path class="cls-3" d="M310,131.1l.26-16.19h3.47l2,10.33L318,114.91h3.36l.27,16.19h-2.41L319,120.17l-2.1,10.93h-2l-2.16-11-.2,11Z"/><path class="cls-3" d="M323.15,131.1l3.17-16.19h3.61l3.15,16.19H330l-.6-3.59h-2.57l-.59,3.59Zm4-5.63h1.93l-1-6.44Z"/><path class="cls-3" d="M333.65,131.1l3.2-8.66-3.08-7.53h3.1l1.92,4.66,1.6-4.66h2.82l-3,8.26,3.23,7.93H340.4l-2.1-5.1-1.86,5.1Z"/><path class="cls-3" d="M344.9,131.1V114.91h3.27V131.1Z"/><path class="cls-3" d="M350.57,131.1l.27-16.19h3.46l2,10.33,2.15-10.33h3.37l.27,16.19h-2.42l-.22-10.93-2.1,10.93h-2l-2.16-11-.21,11Z"/><path class="cls-3" d="M369.05,131.31a6.54,6.54,0,0,1-2.28-.35,3.1,3.1,0,0,1-1.45-1.09,4.62,4.62,0,0,1-.73-1.69,10.35,10.35,0,0,1-.22-2.33V114.91h3.23v11.36c0,.31,0,.57,0,.79a4.8,4.8,0,0,0,.11.7,1.67,1.67,0,0,0,.23.6,1.15,1.15,0,0,0,.43.38,1.33,1.33,0,0,0,.65.15,1.4,1.4,0,0,0,.66-.15,1.11,1.11,0,0,0,.42-.38,1.87,1.87,0,0,0,.24-.6,4.8,4.8,0,0,0,.11-.7c0-.21,0-.47,0-.79V114.91h3.24v10.94a10.35,10.35,0,0,1-.22,2.33,4.45,4.45,0,0,1-.73,1.69,3.07,3.07,0,0,1-1.44,1.09A6.6,6.6,0,0,1,369.05,131.31Z"/><path class="cls-3" d="M376,131.1l.27-16.19h3.46l2,10.33,2.15-10.33h3.37l.27,16.19h-2.42l-.22-10.93-2.1,10.93h-2l-2.16-11-.21,11Z"/><path class="cls-3" d="M396.43,131.1l-2.11-16.19h2.79l1.12,9.87,1.45-9.87h2.2l1.52,9.84,1.12-9.84h2.75l-2.12,16.19h-2.77l-1.58-10.24-1.55,10.24Z"/><path class="cls-3" d="M407.84,131.1,411,114.91h3.62l3.15,16.19h-3.06l-.59-3.59h-2.57l-.6,3.59Zm4-5.63h1.93l-1-6.44Z"/><path class="cls-3" d="M419.37,131.1V114.91h3.29v13.94h3.78v2.25Z"/><path class="cls-3" d="M428,131.1V114.91h3.3v13.94h3.77v2.25Z"/><path class="cls-3" d="M436.66,131.1V114.91h7v2.28H440v4.29h2.92v2.3H440v5.07h3.8v2.25Z"/><path class="cls-3" d="M446.94,131.1V117.34h-2.59v-2.43h8.43v2.43h-2.55V131.1Z"/><path d="M459,131.1v-2.18l3.9-6.06c0-.08.2-.31.46-.7s.43-.67.51-.81l.36-.7a3.93,3.93,0,0,0,.33-.89,3.86,3.86,0,0,0,.09-.84,2,2,0,0,0-.35-1.27,1,1,0,0,0-.8-.37h-.16c-.85.08-1.28.88-1.28,2.4v.73h-3v-.78a7.54,7.54,0,0,1,.24-2,4.87,4.87,0,0,1,.76-1.57,3.24,3.24,0,0,1,1.36-1,5.06,5.06,0,0,1,2-.37,4.23,4.23,0,0,1,3.19,1.13,4.35,4.35,0,0,1,1.08,3.15,5.68,5.68,0,0,1-.14,1.32,5.41,5.41,0,0,1-.44,1.24c-.2.4-.39.74-.56,1s-.41.64-.71,1.08c-.1.13-.17.24-.22.31l-3.12,4.72h4.76v2.45Z"/><path d="M472.8,124a3.43,3.43,0,0,1-2.81-1,4.86,4.86,0,0,1-.86-3.17V119a4.84,4.84,0,0,1,.84-3.16,3.56,3.56,0,0,1,2.83-1,3.62,3.62,0,0,1,2.85,1,4.64,4.64,0,0,1,.85,3.11v.86a4.83,4.83,0,0,1-.87,3.16A3.5,3.5,0,0,1,472.8,124Zm0-2a1.08,1.08,0,0,0,.52-.12.91.91,0,0,0,.33-.28,1.17,1.17,0,0,0,.19-.49,4.58,4.58,0,0,0,.08-.62c0-.2,0-.46,0-.77V119c0-.33,0-.59,0-.78a4.24,4.24,0,0,0-.08-.58.85.85,0,0,0-.18-.45.83.83,0,0,0-.33-.24,1.27,1.27,0,0,0-.54-.1,1.17,1.17,0,0,0-.53.1.83.83,0,0,0-.33.24.94.94,0,0,0-.19.45c0,.2-.06.4-.07.58s0,.44,0,.77v.67c0,.26,0,.48,0,.66s0,.35.06.54a1.63,1.63,0,0,0,.11.46,1.81,1.81,0,0,0,.2.33.77.77,0,0,0,.31.22A1.4,1.4,0,0,0,472.8,122Zm2.07,9.12,4.76-16.19h1.88l-4.77,16.19Zm8.7.05a3.46,3.46,0,0,1-2.82-1.05,5,5,0,0,1-.86-3.18v-.76a4.84,4.84,0,0,1,.84-3.16,3.55,3.55,0,0,1,2.84-1,3.62,3.62,0,0,1,2.85,1,4.64,4.64,0,0,1,.85,3.11V127a4.86,4.86,0,0,1-.87,3.17A3.53,3.53,0,0,1,483.57,131.15Zm-.51-2.13a1,1,0,0,0,.51.11,1.05,1.05,0,0,0,.52-.11.85.85,0,0,0,.33-.29,1.43,1.43,0,0,0,.19-.49,4.65,4.65,0,0,0,.08-.61c0-.2,0-.46,0-.78v-.66c0-.33,0-.59,0-.78a4.16,4.16,0,0,0-.07-.58,1,1,0,0,0-.18-.44,1.11,1.11,0,0,0-.34-.25,1.33,1.33,0,0,0-.53-.09,1.36,1.36,0,0,0-.53.09,1,1,0,0,0-.33.25,1.05,1.05,0,0,0-.18.45,4,4,0,0,0-.08.58c0,.18,0,.44,0,.77v.67c0,.31,0,.57,0,.78a4.58,4.58,0,0,0,.08.62,1.26,1.26,0,0,0,.19.48A.91.91,0,0,0,483.06,129Z"/></g></g></svg>